# xmcd
# 
# Track frame offsets:
#     150
#     18477
#     43551
#     63291
#     78132
#     95510
#     113575
#     132305
#     147023
#     158782
#     179266
#     197264
# 
# Disc length: 2894
# 
# Revision: 0
# Processed by: cddbd v1.5.2PL0 Copyright (c) Steve Scherf et al.
# Submitted via: fre:ac v1.0.17
# 
DISCID=8e0b4c0c
DTITLE=Roddy Gordon Band - C'est La Vie
DYEAR=2015
DGENRE=Country
TTITLE0=Love Eternally
TTITLE1=Long Road Home
TTITLE2=Dodge The Bullet
TTITLE3=Don't Want To Live Again
TTITLE4=Down By The Murray
TTITLE5=Go Get Gone
TTITLE6=Emigration Blues
TTITLE7=I'm Free
TTITLE8=Cold Coffee
TTITLE9=New World
TTITLE10=Travelling Man
TTITLE11=Australia
EXTD=
EXTT0=
EXTT1=
EXTT2=
EXTT3=
EXTT4=
EXTT5=
EXTT6=
EXTT7=
EXTT8=
EXTT9=
EXTT10=
EXTT11=
PLAYORDER=
